<svg width="216" height="21" viewBox="0 0 216 21" fill="none" xmlns="http://www.w3.org/2000/svg">
<path d="M13.3532 20.1147L12.1149 16.1122H5.14468L3.90638 20.1147H0L6.68936 0.885332H10.5447L17.2596 20.1147H13.3532ZM8.61702 5.11156L6.08936 12.9549H11.1447L8.60425 5.11156H8.61702Z" fill="#454B52"/>
<path d="M31.8255 17.4671C30.5362 19.7293 28.0213 20.4876 25.5064 20.4876C22.1745 20.4876 19.0979 19.1576 18.1149 15.8014C17.8979 15.0681 17.8723 14.3222 17.8085 13.564H21.4723C21.5234 14.0861 21.6128 14.5709 21.817 15.0681C22.4553 16.6218 23.9106 17.2682 25.5702 17.2682C26.8213 17.2682 28.7362 16.7585 28.7362 15.2296C28.7362 14.9065 28.6213 14.6827 28.4809 14.3844C28.0596 13.564 26.5277 12.9922 25.7106 12.669C24.0255 11.9854 21.9064 11.252 20.4766 10.1955C19.1362 9.18863 18.4596 7.7716 18.4596 6.13083C18.4468 2.43909 21.7532 0.5 25.2255 0.5C27.7021 0.5 30.3447 1.5317 31.4298 3.88098C31.8511 4.75109 31.966 5.57147 32.017 6.51616H28.3532C28.3787 4.72623 26.8723 3.6821 25.1362 3.6821C23.9106 3.6821 22.2511 4.32846 22.2511 5.75792C22.2511 7.18738 23.9872 7.61001 25.0468 8.0202C26.7191 8.66656 29.0809 9.41237 30.5362 10.4192C31.9915 11.426 32.5787 12.8679 32.5787 14.5833C32.5787 15.5901 32.3234 16.597 31.8255 17.4671Z" fill="#454B52"/>
<path d="M35.183 20.1147V0.885332H38.9872V20.1147H35.183Z" fill="#454B52"/>
<path d="M54.3064 20.1147L53.0809 16.1122H46.1106L44.8723 20.1147H40.966L47.6426 0.885332H51.4979L58.2128 20.1147H54.2936H54.3064ZM49.5702 5.11156L47.0553 12.9549H52.1234L49.583 5.11156H49.5702Z" fill="#454B52"/>
<path d="M71.5149 20.1147L63.2426 6.57831V20.1147H59.6298V0.885332H63.6894L71.7191 14.4341V0.885332H75.3319V20.1147H71.5149Z" fill="#454B52"/>
<path d="M90.0766 20.1147L88.8511 16.1122H81.8936L80.6553 20.1147H76.7362L83.4255 0.885332H87.2809L93.9957 20.1147H90.0766ZM85.3532 5.11156L82.8255 12.9549H87.8936L85.3404 5.11156H85.3532Z" fill="#454B52"/>
<path d="M116.247 20.1147L115.021 16.1122H108.064L106.826 20.1147H102.906L109.596 0.885332H113.451L120.166 20.1147H116.247ZM111.523 5.09913L109.009 12.9425H114.077L111.523 5.09913Z" fill="#454B52"/>
<path d="M122.209 20.1147V0.885332H126.013V20.1147H122.209Z" fill="#454B52"/>
<path d="M140.004 20.1147L135.983 12.7561H133.238V20.1147H129.434V0.885332H134.77C136.366 0.885332 138.051 0.835612 139.557 1.37011C142.047 2.24021 143.387 4.25388 143.387 6.78962C143.387 9.32536 142.187 11.0904 139.889 12.1346L144.421 20.1147H139.991H140.004ZM137.987 4.39062C137.145 4.00528 135.97 4.03014 135.051 4.03014H133.226V9.58639H135.715C137.732 9.58639 139.494 9.03946 139.494 6.72747C139.494 5.67091 138.983 4.82567 137.987 4.37818V4.39062Z" fill="#454B52"/>
<path d="M146.323 20.1147V0.885332H150.204V16.9574H158.796V20.1147H146.323Z" fill="#454B52"/>
<path d="M161.043 20.1147V0.885332H164.847V20.1147H161.043Z" fill="#454B52"/>
<path d="M180.153 20.1147L171.868 6.57831V20.1147H168.255V0.885332H172.315L180.345 14.4217V0.885332H183.957V20.1147H180.153Z" fill="#454B52"/>
<path d="M187.353 20.1147V0.885332H199.8V4.04257H191.157V8.56712H199.021V11.7244H191.157V16.945H200.106V20.1022H187.353V20.1147Z" fill="#454B52"/>
<path d="M215.247 17.4795C213.957 19.7418 211.443 20.5 208.928 20.5C205.596 20.5 202.519 19.17 201.536 15.8139C201.319 15.0805 201.294 14.3347 201.23 13.5764H204.894C204.945 14.0985 205.034 14.5833 205.226 15.0805C205.864 16.6342 207.319 17.2806 208.979 17.2806C210.243 17.2806 212.145 16.7585 212.145 15.2421C212.145 14.9189 212.03 14.6952 211.889 14.3968C211.468 13.5764 209.936 13.0047 209.119 12.6815C207.434 11.9978 205.315 11.2644 203.885 10.2079C202.545 9.20106 201.868 7.78403 201.868 6.14326C201.868 2.43909 205.174 0.5 208.634 0.5C211.136 0.5 213.766 1.54413 214.851 3.88098C215.272 4.75109 215.374 5.57147 215.438 6.52859H211.774C211.8 4.72623 210.294 3.69453 208.557 3.69453C207.332 3.69453 205.685 4.35332 205.685 5.77035C205.685 7.18738 207.421 7.62244 208.481 8.03263C210.166 8.69142 212.515 9.4248 213.957 10.4316C215.413 11.4385 216 12.8804 216 14.6081C216 15.615 215.745 16.6218 215.247 17.4919V17.4795Z" fill="#454B52"/>
</svg>
