<svg width="48" height="48" viewBox="0 0 48 48" fill="none" xmlns="http://www.w3.org/2000/svg">
<path d="M8.58273 29.5C8.53753 29.5 8.49232 29.4901 8.44712 29.4752L4.48722 27.9743C3.5967 27.6374 3 26.726 3 25.7105V25.2894C3 24.2739 3.5967 23.3624 4.48722 23.0256L8.44712 21.5246C8.60986 21.4652 8.79067 21.5147 8.90368 21.6584C9.01217 21.802 9.03026 22.0051 8.94437 22.1636C8.93533 22.1785 8.08549 23.7835 8.08549 25.4975C8.08549 27.2114 8.93533 28.8164 8.94437 28.8313C9.03026 28.9947 9.0167 29.1929 8.90368 29.3365C8.82232 29.4406 8.70478 29.495 8.58725 29.495L8.58273 29.5Z" fill="url(#paint0_linear_4402_17235)" stroke="#494E54" stroke-width="1.5"/>
<path d="M39.0963 29.3366C38.9878 29.193 38.9697 28.9899 39.0556 28.8314C39.0647 28.8166 39.9145 27.212 39.9145 25.4985C39.9145 23.785 39.0647 22.1805 39.0556 22.1656C38.9697 22.0022 38.9833 21.8041 39.0963 21.6605C39.2048 21.5169 39.3901 21.4624 39.5529 21.5268L43.5128 23.0273C44.4033 23.3641 45 24.2753 45 25.2905V25.7115C45 26.7267 44.4033 27.6379 43.5128 27.9747L39.5529 29.4752C39.5077 29.4901 39.4625 29.5 39.4173 29.5C39.2952 29.5 39.1777 29.4455 39.1008 29.3415L39.0963 29.3366Z" fill="url(#paint1_linear_4402_17235)" stroke="#494E54" stroke-width="1.5"/>
<path d="M38 8.65513C38 9.55728 37.5089 10.4308 36.6553 10.8795L29.1117 14.8365L27.8481 15.5C26.9659 15.3186 26.0456 15.2184 25.0967 15.2184C24.8297 15.2184 24.5627 15.2279 24.2956 15.2422L24 14.6838L24.7772 14.278L37.6996 7.5C37.8951 7.87232 37.9857 8.2685 37.9857 8.6599L38 8.65513Z" fill="#A92649"/>
<path d="M38 12.6684C38 13.5734 37.5239 14.4497 36.6965 14.8998L32.8505 16.9876L31.9076 17.5C31.0154 16.9637 30.0401 16.5375 29 16.2358L30.1464 15.6133L37.7227 11.5C37.9122 11.8735 38 12.2709 38 12.6636V12.6684Z" fill="#E6AA2A"/>
<path d="M38 16.7643C38 17.7477 37.4841 18.6998 36.5876 19.1889L35.0902 20.0057L34.1786 20.5C33.5426 19.7872 32.8063 19.1472 32 18.5957L32.9917 18.0598L37.6945 15.5C37.8998 15.9058 37.995 16.3377 37.995 16.7643H38Z" fill="#1B2E66"/>
<path d="M20.0679 15.0172C18.8993 15.3324 17.8059 15.7904 16.8079 16.3618C16.5972 16.4849 16.3866 16.608 16.1809 16.741C15.3434 17.2828 14.586 17.9083 13.924 18.6028C13.7886 18.7407 13.6632 18.8786 13.5378 19.0214C12.8958 19.7602 12.3642 20.5729 11.9529 21.4349C11.8727 21.6023 11.7975 21.7698 11.7323 21.9372C11.311 22.9617 11.0602 24.0601 11.01 25.1929C11.005 25.3357 11 25.4736 11 25.6214C11 25.7199 11 25.8135 11 25.912C11.0702 28.2712 12.0081 30.4531 13.5428 32.2312C15.9151 34.9696 19.7168 36.7428 23.995 36.7428C25.1786 36.7428 26.3573 36.6049 27.5058 36.329C27.6813 36.2896 27.8619 36.3389 27.9923 36.462L32.0899 40.4811C32.0899 40.4811 32.12 40.5106 32.1601 40.4959C32.2002 40.4811 32.2002 40.4515 32.2002 40.4368V34.5017C32.2002 34.3441 32.2755 34.1914 32.4109 34.0979C35.3299 31.9751 37 28.8869 37 25.6214C37 19.7405 31.6335 14.9088 24.8677 14.5246C24.5818 14.5099 24.2909 14.5 24 14.5C22.9718 14.5 21.9687 14.6034 21.0108 14.8004C20.6948 14.8645 20.3839 14.9384 20.0779 15.0221" fill="url(#paint2_linear_4402_17235)"/>
<path d="M20.0679 15.0172C18.8993 15.3324 17.8059 15.7904 16.8079 16.3618C16.5972 16.4849 16.3866 16.608 16.1809 16.741C15.3434 17.2828 14.586 17.9083 13.924 18.6028C13.7886 18.7407 13.6632 18.8786 13.5378 19.0214C12.8958 19.7602 12.3642 20.5729 11.9529 21.4349C11.8727 21.6023 11.7975 21.7698 11.7323 21.9372C11.311 22.9617 11.0602 24.0601 11.01 25.1929C11.005 25.3357 11 25.4736 11 25.6214C11 25.7199 11 25.8135 11 25.912C11.0702 28.2712 12.0081 30.4531 13.5428 32.2312C15.9151 34.9696 19.7168 36.7428 23.995 36.7428C25.1786 36.7428 26.3573 36.6049 27.5058 36.329C27.6813 36.2896 27.8619 36.3389 27.9923 36.462L32.0899 40.4811C32.0899 40.4811 32.12 40.5106 32.1601 40.4959C32.2002 40.4811 32.2002 40.4515 32.2002 40.4368V34.5017C32.2002 34.3441 32.2755 34.1914 32.4109 34.0979C35.3299 31.9751 37 28.8869 37 25.6214C37 19.7405 31.6335 14.9088 24.8677 14.5246C24.5818 14.5099 24.2909 14.5 24 14.5C22.9718 14.5 21.9687 14.6034 21.0108 14.8004C20.6948 14.8645 20.3839 14.9384 20.0779 15.0221" stroke="#494E54" stroke-width="1.5"/>
<path d="M31.9571 21.5H16.0429C15.4669 21.5 15 22.0355 15 22.6961V28.304C15 28.9645 15.4669 29.5 16.0429 29.5H31.9571C32.5331 29.5 33 28.9645 33 28.304V22.6961C33 22.0355 32.5331 21.5 31.9571 21.5Z" fill="#EFEFEF" stroke="#494E54" stroke-width="1.5"/>
<path d="M28 27.5C26.8953 27.5 26 26.6047 26 25.5C26 24.3953 26.8953 23.5 28 23.5C29.1047 23.5 30 24.3953 30 25.5C30 26.6047 29.1047 27.5 28 27.5ZM28 24.5419C27.4712 24.5419 27.0419 24.9712 27.0419 25.5C27.0419 26.0288 27.4712 26.4581 28 26.4581C28.5288 26.4581 28.9581 26.0288 28.9581 25.5C28.9581 24.9712 28.5288 24.5419 28 24.5419Z" fill="#494E54"/>
<path d="M22.4612 27.4952C22.2744 27.4952 22.0876 27.3923 21.9888 27.2094L20.5769 24.6375L19.0112 27.2323C18.8519 27.4952 18.5168 27.5809 18.2586 27.4152C18.0004 27.2494 17.9235 26.9008 18.0828 26.6322L19.6375 24.0374C19.8408 23.6944 20.1978 23.4944 20.5879 23.5001C20.9779 23.5058 21.324 23.723 21.5163 24.0717L22.9282 26.6436C23.0765 26.9179 22.9886 27.2609 22.7249 27.4152C22.637 27.4666 22.5491 27.4895 22.4557 27.4895L22.4612 27.4952Z" fill="#494E54"/>
<defs>
<linearGradient id="paint0_linear_4402_17235" x1="6.51635" y1="22.9049" x2="4.90871" y2="27.0041" gradientUnits="userSpaceOnUse">
<stop offset="0.120192" stop-color="#EFEFEF"/>
<stop offset="1" stop-color="#C9CACA"/>
</linearGradient>
<linearGradient id="paint1_linear_4402_17235" x1="42.5163" y1="22.9049" x2="40.9087" y2="27.0041" gradientUnits="userSpaceOnUse">
<stop offset="0.120192" stop-color="#EFEFEF"/>
<stop offset="1" stop-color="#C9CACA"/>
</linearGradient>
<linearGradient id="paint2_linear_4402_17235" x1="26.2375" y1="19.0659" x2="22.0762" y2="33.2133" gradientUnits="userSpaceOnUse">
<stop offset="0.120192" stop-color="#EFEFEF"/>
<stop offset="1" stop-color="#C9CACA"/>
</linearGradient>
</defs>
</svg>
