<svg width="48" height="48" viewBox="0 0 48 48" fill="none" xmlns="http://www.w3.org/2000/svg">
<circle cx="20.5" cy="18.5" r="5" stroke="#454B52" stroke-width="3"/>
<path d="M20.5 23.5C22.5342 23.5 24.7823 24.0385 26.5508 25.4971C28.3684 26.9963 29.5 29.3207 29.5 32.5V34H11.5V32.5C11.5 29.3207 12.6316 26.9963 14.4492 25.4971C16.2177 24.0385 18.4658 23.5 20.5 23.5Z" stroke="#454B52" stroke-width="3"/>
<mask id="path-3-outside-1_4402_17089" maskUnits="userSpaceOnUse" x="16" y="26" width="26" height="13" fill="black">
<rect fill="white" x="16" y="26" width="26" height="13"/>
<path d="M18.684 37V28.6H21.012L24.372 34.084H23.148L26.412 28.6H28.74L28.764 37H26.184L26.16 32.488H26.568L24.336 36.244H23.088L20.76 32.488H21.264V37H18.684ZM32.2932 37V33.316L32.9412 35.008L29.1252 28.6H32.1132L34.6932 32.98H32.9532L35.5572 28.6H38.2932L34.5012 35.008L35.1252 33.316V37H32.2932Z"/>
</mask>
<path d="M18.684 37V28.6H21.012L24.372 34.084H23.148L26.412 28.6H28.74L28.764 37H26.184L26.16 32.488H26.568L24.336 36.244H23.088L20.76 32.488H21.264V37H18.684ZM32.2932 37V33.316L32.9412 35.008L29.1252 28.6H32.1132L34.6932 32.98H32.9532L35.5572 28.6H38.2932L34.5012 35.008L35.1252 33.316V37H32.2932Z" fill="#454B52"/>
<path d="M18.684 37H16.684V39H18.684V37ZM18.684 28.6V26.6H16.684V28.6H18.684ZM21.012 28.6L22.7174 27.5551L22.1322 26.6H21.012V28.6ZM24.372 34.084V36.084H27.9429L26.0774 33.0391L24.372 34.084ZM23.148 34.084L21.4294 33.0611L19.6302 36.084H23.148V34.084ZM26.412 28.6V26.6H25.2749L24.6934 27.5771L26.412 28.6ZM28.74 28.6L30.74 28.5943L30.7343 26.6H28.74V28.6ZM28.764 37V39H30.7697L30.764 36.9943L28.764 37ZM26.184 37L24.184 37.0106L24.1946 39H26.184V37ZM26.16 32.488V30.488H24.1493L24.16 32.4986L26.16 32.488ZM26.568 32.488L28.2873 33.5097L30.083 30.488H26.568V32.488ZM24.336 36.244V38.244H25.474L26.0553 37.2657L24.336 36.244ZM23.088 36.244L21.388 37.2976L21.9746 38.244H23.088V36.244ZM20.76 32.488V30.488H17.1674L19.06 33.5416L20.76 32.488ZM21.264 32.488H23.264V30.488H21.264V32.488ZM21.264 37V39H23.264V37H21.264ZM18.684 37H20.684V28.6H18.684H16.684V37H18.684ZM18.684 28.6V30.6H21.012V28.6V26.6H18.684V28.6ZM21.012 28.6L19.3066 29.6449L22.6666 35.1289L24.372 34.084L26.0774 33.0391L22.7174 27.5551L21.012 28.6ZM24.372 34.084V32.084H23.148V34.084V36.084H24.372V34.084ZM23.148 34.084L24.8666 35.1069L28.1306 29.6229L26.412 28.6L24.6934 27.5771L21.4294 33.0611L23.148 34.084ZM26.412 28.6V30.6H28.74V28.6V26.6H26.412V28.6ZM28.74 28.6L26.74 28.6057L26.764 37.0057L28.764 37L30.764 36.9943L30.74 28.5943L28.74 28.6ZM28.764 37V35H26.184V37V39H28.764V37ZM26.184 37L28.184 36.9894L28.16 32.4774L26.16 32.488L24.16 32.4986L24.184 37.0106L26.184 37ZM26.16 32.488V34.488H26.568V32.488V30.488H26.16V32.488ZM26.568 32.488L24.8487 31.4663L22.6167 35.2223L24.336 36.244L26.0553 37.2657L28.2873 33.5097L26.568 32.488ZM24.336 36.244V34.244H23.088V36.244V38.244H24.336V36.244ZM23.088 36.244L24.788 35.1904L22.46 31.4344L20.76 32.488L19.06 33.5416L21.388 37.2976L23.088 36.244ZM20.76 32.488V34.488H21.264V32.488V30.488H20.76V32.488ZM21.264 32.488H19.264V37H21.264H23.264V32.488H21.264ZM21.264 37V35H18.684V37V39H21.264V37ZM32.2932 37H30.2932V39H32.2932V37ZM32.2932 33.316L34.1609 32.6007L30.2932 33.316H32.2932ZM32.9412 35.008L31.2228 36.0313L34.8089 34.2927L32.9412 35.008ZM29.1252 28.6V26.6H25.6064L27.4068 29.6233L29.1252 28.6ZM32.1132 28.6L33.8365 27.5849L33.2563 26.6H32.1132V28.6ZM34.6932 32.98V34.98H38.1925L36.4165 31.9649L34.6932 32.98ZM32.9532 32.98L31.2341 31.9579L29.4374 34.98H32.9532V32.98ZM35.5572 28.6V26.6H34.4195L33.8381 27.5779L35.5572 28.6ZM38.2932 28.6L40.0144 29.6185L41.8007 26.6H38.2932V28.6ZM34.5012 35.008L32.6248 34.316L36.2224 36.0265L34.5012 35.008ZM35.1252 33.316H37.1252L33.2488 32.624L35.1252 33.316ZM35.1252 37V39H37.1252V37H35.1252ZM32.2932 37H34.2932V33.316H32.2932H30.2932V37H32.2932ZM32.2932 33.316L30.4255 34.0313L31.0735 35.7233L32.9412 35.008L34.8089 34.2927L34.1609 32.6007L32.2932 33.316ZM32.9412 35.008L34.6596 33.9847L30.8436 27.5767L29.1252 28.6L27.4068 29.6233L31.2228 36.0313L32.9412 35.008ZM29.1252 28.6V30.6H32.1132V28.6V26.6H29.1252V28.6ZM32.1132 28.6L30.39 29.6151L32.97 33.9951L34.6932 32.98L36.4165 31.9649L33.8365 27.5849L32.1132 28.6ZM34.6932 32.98V30.98H32.9532V32.98V34.98H34.6932V32.98ZM32.9532 32.98L34.6723 34.0021L37.2763 29.6221L35.5572 28.6L33.8381 27.5779L31.2341 31.9579L32.9532 32.98ZM35.5572 28.6V30.6H38.2932V28.6V26.6H35.5572V28.6ZM38.2932 28.6L36.572 27.5815L32.78 33.9895L34.5012 35.008L36.2224 36.0265L40.0144 29.6185L38.2932 28.6ZM34.5012 35.008L36.3777 35.7L37.0017 34.008L35.1252 33.316L33.2488 32.624L32.6248 34.316L34.5012 35.008ZM35.1252 33.316H33.1252V37H35.1252H37.1252V33.316H35.1252ZM35.1252 37V35H32.2932V37V39H35.1252V37Z" fill="white" mask="url(#path-3-outside-1_4402_17089)"/>
</svg>
